# xmcd
#
# Track frame offsets:
# 182
# 18270
# 35832
# 52190
# 72305
# 91582
# 109352
# 124857
# 146492
# 164195
# 185607
# 206760
# 224345
# 242407
# 258937
# 275757
# 296295
# 313327
# 330370
#
# Disc length: 4681 seconds
#
#
# Revision: 5
# Processed by: cddbd v1.5.1PL0 Copyright (c) Steve Scherf et al.
# Submitted via: FreeRIP 2.93 
#
DISCID=2c124713
DTITLE=Black and Soul - Black and Beautiful Vol. 4
DYEAR=1900
DGENRE=Hip-Hop
TTITLE0=Coolio - C U when U get there
TTITLE1=Bootsy Collins - I'm leavin'U
TTITLE2=Eternal - Angel of mine
TTITLE3=Boyz II Men - 4 Seasons of loneliness
TTITLE4=Faith Evans - Love don't live here anymore
TTITLE5=Brian Mc Knight - Show me the way to your heart
TTITLE6=Intrigue - Hard to say I'm sorry
TTITLE7=Rahsaan Patterson - Come over
TTITLE8=Vanessa Williams - Happiness
TTITLE9=Brownstone - Kiss and tell
TTITLE10=Luther Vandross - When you call on me
TTITLE11=Aaliyah - The one I gave my heart to
TTITLE12=Mary J. Blige Everything
TTITLE13=Alexander O'Neal - let's get together
TTITLE14=D'Influence - Hypnotize
TTITLE15=Erykah Badu - Apple Tree
TTITLE16=Bobby Brown - Feelin' inside
TTITLE17=Jordan Hill - Too much heaven
TTITLE18=R.Kelly - Be happy
EXTD=
EXTT0=
EXTT1=
EXTT2=
EXTT3=
EXTT4=
EXTT5=
EXTT6=
EXTT7=
EXTT8=
EXTT9=
EXTT10=
EXTT11=
EXTT12=
EXTT13=
EXTT14=
EXTT15=
EXTT16=
EXTT17=
EXTT18=
PLAYORDER=
